# xmcd CD database file
#
# Track frame offsets:
#	225
#	15135
#	27672
#	46675
#	66530
#	79727
#	93030
#	106517
#	123546
#	134140
#	150302
#	166072
#	177685
#	189314
#	204448
#	223190
#	241521
#	282797
#
# Disc length: 4335 seconds
#
# Revision: 0
# Processed by: cddbd v1.5.1PL0 Copyright (c) Steve Scherf et al.
# Submitted via: CDex 1.51
#
DISCID=e910ec12
DTITLE=The Positively Testcard - Gas Up My Hotrod Stoker, The Kwela Groove Frenzy's Hit Town
DYEAR=2000
DGENRE=Jazz
TTITLE0=Big and Clever
TTITLE1=Sutha Sutha
TTITLE2=Uptrain to Kwelaville
TTITLE3=Lambfoot
TTITLE4=Khala Mfazi
TTITLE5=Sweet Boy
TTITLE6=First Stop Dube
TTITLE7=Brassica
TTITLE8=Twist with the Morning Stars
TTITLE9=Jika Spokes
TTITLE10=Big Noise from Winnetka
TTITLE11=Phenduka Mfana
TTITLE12=Flight of the Foo Birds
TTITLE13=Sit U Up
TTITLE14=I Want You Back
TTITLE15=Bra Ntemi's Kwela
TTITLE16=Lambfoot Dub and Dubba
TTITLE17=unknown extra track
EXTD=YEAR: 2000
EXTT0=
EXTT1=
EXTT2=
EXTT3=
EXTT4=
EXTT5=
EXTT6=
EXTT7=
EXTT8=
EXTT9=
EXTT10=
EXTT11=
EXTT12=
EXTT13=
EXTT14=
EXTT15=
EXTT16=
EXTT17=
PLAYORDER=
